<?xml version="1.0" encoding="UTF-8"?>
<svg version="1.1" xmlns="http://www.w3.org/2000/svg" width="520" height="520">
<path d="M0 0 C5.83028038 0.54973427 10.58290168 2.2453859 15.9375 4.5625 C16.71673828 4.89185547 17.49597656 5.22121094 18.29882812 5.56054688 C20.20235303 6.36633349 22.10163025 7.18214217 24 8 C23.85935198 9.41575574 23.71386511 10.83103118 23.56640625 12.24609375 C23.48592041 13.0342749 23.40543457 13.82245605 23.32250977 14.63452148 C23.01995402 16.85364532 22.54413893 18.90967501 21.9375 21.0625 C18.10059358 37.71816197 22.21044373 54.65109189 31 69 C33.75514412 72.6207639 36.74030587 75.83148613 40 79 C40.92039062 79.95132813 40.92039062 79.95132813 41.859375 80.921875 C50.16873315 88.94715253 61.77492674 93.82685319 73 96 C74.175625 96.23009766 74.175625 96.23009766 75.375 96.46484375 C91.87199313 98.87969965 108.48850633 93.15113629 122 84 C135.132468 74.16087678 143.66203352 59.23889899 146 43 C146.75204049 33.2169341 146.58773522 23.77998139 143.65625 14.34765625 C143 12 143 12 143 8 C146.24542723 6.65533814 149.49702334 5.3262825 152.75 4 C153.67039063 3.6184375 154.59078125 3.236875 155.5390625 2.84375 C156.42851562 2.4828125 157.31796875 2.121875 158.234375 1.75 C159.05131836 1.41484375 159.86826172 1.0796875 160.70996094 0.734375 C163 0 163 0 167 0 C175.44312 23.48498912 175.84876084 48.4619907 165.64453125 71.55078125 C154.64066302 94.63015334 135.11617532 111.29841386 111.1875 119.875 C93.32564548 124.95437259 72.49561819 125.58506663 55 119 C53.44345703 118.43925781 53.44345703 118.43925781 51.85546875 117.8671875 C38.84065345 112.82164935 28.85433588 105.69700976 19 96 C18.12859375 95.15308594 17.2571875 94.30617188 16.359375 93.43359375 C-0.12340961 76.43231095 -6.57231705 52.6363621 -6.29296875 29.5546875 C-5.95566707 19.88080675 -4.61597808 8.63774862 0 0 Z " fill="#000000" transform="translate(38,261)"/>
<path d="M0 0 C5.517155 0.6338479 10.26747809 2.50564309 15.375 4.5625 C16.20644531 4.89185547 17.03789062 5.22121094 17.89453125 5.56054688 C19.93184618 6.36844762 21.96684442 7.1817011 24 8 C23.56309248 12.0778035 23.07131251 15.94502665 21.9609375 19.89453125 C17.77410181 35.88169433 21.90574884 51.93248441 29.34765625 66.19140625 C33.58814573 73.65080906 33.58814573 73.65080906 40 79 C40 79.66 40 80.32 40 81 C40.57621094 81.27199219 41.15242188 81.54398437 41.74609375 81.82421875 C44.00492253 83.0025679 45.98501721 84.34078789 48.0625 85.8125 C63.13671117 95.86197411 79.10331431 98.57324665 96.89453125 95.5 C109.47179782 92.5536418 120.06247502 86.20332498 129 77 C129.82371094 76.20722656 129.82371094 76.20722656 130.6640625 75.3984375 C142.08111603 63.49295387 146.43700523 47.30497012 146.36523438 31.25341797 C146.21093043 25.7793612 145.27507969 20.76183233 143.65625 15.515625 C142.97334736 12.89783157 142.95287588 10.69168512 143 8 C146.05618749 6.65185336 149.12086085 5.32417971 152.1875 4 C153.05181641 3.6184375 153.91613281 3.236875 154.80664062 2.84375 C155.64775391 2.4828125 156.48886719 2.121875 157.35546875 1.75 C158.51018677 1.24726563 158.51018677 1.24726563 159.68823242 0.734375 C162.24049266 -0.07639687 164.33826057 -0.1317489 167 0 C175.31504316 25.38913665 175.49042793 49.53016448 164 74 C155.48292285 90.59560561 142.28188136 104.06332828 126 113 C125.15695312 113.48210937 124.31390625 113.96421875 123.4453125 114.4609375 C103.78770014 125.09538353 78.28585138 125.98244455 57 120 C34.46003692 112.73463721 15.41129423 97.67896572 3.94335938 76.84326172 C-7.2986896 54.87704283 -9.71532032 28.84169234 -2.1328125 5.30859375 C-1.47860565 3.5173131 -0.75120658 1.75281535 0 0 Z " fill="#000000" transform="translate(315,261)"/>
<path d="M0 0 C19.20545012 16.87587507 30.65081952 36.83819423 33.765625 62.390625 C34.56277352 76.60133038 32.77980591 90.0194759 27.765625 103.390625 C23.93956193 104.42273296 21.8009236 104.37762065 18.15625 102.84375 C17.31964844 102.493125 16.48304688 102.1425 15.62109375 101.78125 C14.33138672 101.21664062 14.33138672 101.21664062 13.015625 100.640625 C12.14035156 100.2796875 11.26507813 99.91875 10.36328125 99.546875 C5.56120866 97.49203463 5.56120866 97.49203463 3.765625 96.390625 C2.45652739 92.46333218 3.6034629 89.78209045 4.703125 85.953125 C9.14902994 69.17317628 6.29560249 53.15979379 -2 38.05859375 C-5.06946256 32.82679964 -8.80216049 28.51844957 -13.234375 24.390625 C-13.99363281 23.67390625 -14.75289062 22.9571875 -15.53515625 22.21875 C-27.54873532 11.75848148 -43.95308677 6.66024002 -59.78125 7.6015625 C-73.23819449 9.08126801 -84.61629858 12.92379454 -95.234375 21.390625 C-96.265625 22.15375 -97.296875 22.916875 -98.359375 23.703125 C-104.7486773 29.67573367 -109.40506188 36.12711959 -113.109375 44.015625 C-113.39546631 44.6245459 -113.68155762 45.2334668 -113.97631836 45.86083984 C-117.50141818 53.74969346 -118.59747171 60.86828665 -118.546875 69.453125 C-118.54494141 70.82053833 -118.54494141 70.82053833 -118.54296875 72.21557617 C-118.43067043 80.22034068 -117.23316385 87.64531822 -115.234375 95.390625 C-132.57044057 104.390625 -132.57044057 104.390625 -139.234375 104.390625 C-140.05380448 101.87186207 -140.86502569 99.3509183 -141.671875 96.828125 C-141.90197266 96.12365234 -142.13207031 95.41917969 -142.36914062 94.69335938 C-149.45815051 72.39893697 -145.59631588 47.72944887 -135.19628906 27.1640625 C-132.68230026 22.52913493 -129.595816 18.43564262 -126.234375 14.390625 C-125.5228125 13.52824219 -124.81125 12.66585937 -124.078125 11.77734375 C-93.83762833 -23.30802123 -36.36058257 -30.39691296 0 0 Z " fill="#000000" transform="translate(315.234375,154.609375)"/>
</svg>
